<svg width="35" height="36" viewBox="0 0 35 36" fill="none" xmlns="http://www.w3.org/2000/svg">
<path d="M33.5107 1.51579C32.842 0.83423 31.9941 0.35585 31.065 0.135961C30.1359 -0.0839271 29.1636 -0.0363419 28.2604 0.273214L3.49644 8.55119C2.49769 8.87811 1.62504 9.507 0.998966 10.3511C0.372894 11.1951 0.0242703 12.2127 0.00122139 13.2633C-0.0218275 14.314 0.281835 15.3459 0.87029 16.2166C1.45874 17.0873 2.30297 17.7538 3.28643 18.1242L12.457 21.6244C12.6658 21.7043 12.8559 21.8263 13.0155 21.9829C13.1751 22.1395 13.3007 22.3272 13.3845 22.5345L16.8847 31.7225C17.241 32.6921 17.8876 33.5282 18.7363 34.117C19.585 34.7057 20.5946 35.0185 21.6275 35.0127H21.75C22.8018 34.9936 23.8213 34.6458 24.6656 34.0181C25.5098 33.3904 26.1365 32.5143 26.4578 31.5125L34.7357 6.71358C35.0368 5.81917 35.0816 4.85837 34.8651 3.93982C34.6486 3.02127 34.1795 2.18161 33.5107 1.51579ZM31.4981 5.61102L23.1326 30.4274C23.0354 30.7415 22.8403 31.0163 22.5758 31.2115C22.3113 31.4068 21.9913 31.5122 21.6625 31.5125C21.3357 31.5179 21.0149 31.4236 20.743 31.2423C20.471 31.061 20.2607 30.8012 20.1399 30.4975L16.6397 21.3094C16.3859 20.6418 15.9946 20.035 15.4911 19.5285C14.9876 19.022 14.3831 18.627 13.717 18.3693L4.529 14.8691C4.21905 14.7555 3.95261 14.5474 3.76733 14.2742C3.58205 14.001 3.48729 13.6764 3.49644 13.3465C3.49671 13.0177 3.60218 12.6976 3.79741 12.4331C3.99265 12.1686 4.26742 11.9735 4.5815 11.8764L29.3979 3.59841C29.6828 3.48228 29.9953 3.45117 30.2975 3.50884C30.5998 3.56651 30.8788 3.71049 31.1009 3.92338C31.3231 4.13626 31.4788 4.40893 31.5493 4.70843C31.6197 5.00792 31.602 5.32142 31.4981 5.61102Z" fill="#4BC257"/>
</svg>
