<svg width="380" height="181" viewBox="0 0 380 181" fill="none" xmlns="http://www.w3.org/2000/svg">
<g filter="url(#filter0_i_0_1)">
<path d="M1.11426 9.99997C1.11426 4.47713 5.59141 -3.05176e-05 11.1143 -3.05176e-05H370C375.523 -3.05176e-05 380 4.47712 380 9.99997V180H1.11426V9.99997Z" fill="#26222A"/>
<line x1="1.11426" y1="19.75" x2="380" y2="19.75" stroke="#F2F2F3" stroke-width="0.5"/>
<line x1="1.11426" y1="99.75" x2="380" y2="99.75" stroke="#F2F2F3" stroke-width="0.5"/>
<line x1="1.11426" y1="59.75" x2="380" y2="59.75" stroke="#F2F2F3" stroke-width="0.5"/>
<line x1="1.11426" y1="139.75" x2="380" y2="139.75" stroke="#F2F2F3" stroke-width="0.5"/>
<line y1="39.75" x2="378.886" y2="39.75" stroke="#F2F2F3" stroke-width="0.5"/>
<line x1="1.11426" y1="119.75" x2="380" y2="119.75" stroke="#F2F2F3" stroke-width="0.5"/>
<line x1="1.11426" y1="79.75" x2="380" y2="79.75" stroke="#F2F2F3" stroke-width="0.5"/>
<line x1="1.11426" y1="159.75" x2="380" y2="159.75" stroke="#F2F2F3" stroke-width="0.5"/>
<path d="M69.648 153.5L1.11426 180.5L380 181V9.99997L346.569 17L303.666 52L241.818 74L186.657 79L121.466 112.5L69.648 153.5Z" fill="#AD5CFF" fill-opacity="0.55"/>
<path d="M191.011 81.25L191.011 180.995L192.011 180.995L192.011 81.25L191.011 81.25Z" fill="#F2F2F3"/>
<circle cx="191.5" cy="77" r="4.5" fill="#26222A" stroke="#F2F2F3"/>
<g filter="url(#filter1_d_0_1)">
<path d="M191 70L194.464 64L187.536 64L191 70Z" fill="#F2F2F3"/>
<rect x="164" y="34" width="54" height="30" rx="3" fill="#F2F2F3"/>
<path d="M178.201 43.3859C178.541 43.1006 178.813 42.7478 179 42.3513C179.187 41.9549 179.284 41.5241 179.284 41.0882C179.284 40.2692 178.948 39.4837 178.351 38.9045C177.753 38.3254 176.943 38 176.098 38C175.253 38 174.442 38.3254 173.845 38.9045C173.247 39.4837 172.912 40.2692 172.912 41.0882C172.912 41.5241 173.008 41.9549 173.195 42.3513C173.382 42.7478 173.655 43.1006 173.995 43.3859C173.103 43.7774 172.346 44.4097 171.815 45.207C171.284 46.0044 171.001 46.9332 171 47.8824C171 48.0462 171.067 48.2033 171.187 48.3191C171.306 48.4349 171.468 48.5 171.637 48.5C171.806 48.5 171.968 48.4349 172.088 48.3191C172.207 48.2033 172.274 48.0462 172.274 47.8824C172.274 46.8995 172.677 45.9569 173.394 45.2619C174.111 44.5669 175.084 44.1765 176.098 44.1765C177.112 44.1765 178.084 44.5669 178.801 45.2619C179.518 45.9569 179.921 46.8995 179.921 47.8824C179.921 48.0462 179.988 48.2033 180.108 48.3191C180.227 48.4349 180.389 48.5 180.558 48.5C180.727 48.5 180.89 48.4349 181.009 48.3191C181.129 48.2033 181.196 48.0462 181.196 47.8824C181.195 46.9332 180.912 46.0044 180.381 45.207C179.85 44.4097 179.093 43.7774 178.201 43.3859ZM176.098 42.9412C175.72 42.9412 175.35 42.8325 175.036 42.6289C174.721 42.4253 174.476 42.1359 174.332 41.7973C174.187 41.4587 174.149 41.0862 174.223 40.7267C174.297 40.3673 174.479 40.0371 174.746 39.778C175.013 39.5189 175.354 39.3424 175.725 39.2709C176.096 39.1994 176.48 39.2361 176.829 39.3763C177.179 39.5166 177.477 39.7541 177.687 40.0588C177.897 40.3635 178.01 40.7218 178.01 41.0882C178.01 41.5797 177.808 42.051 177.45 42.3985C177.091 42.746 176.605 42.9412 176.098 42.9412ZM182.304 43.1388C182.712 42.6937 182.979 42.1438 183.072 41.5554C183.164 40.9669 183.08 40.365 182.828 39.8221C182.576 39.2791 182.168 38.8183 181.652 38.495C181.136 38.1717 180.535 37.9998 179.921 38C179.752 38 179.59 38.0651 179.471 38.1809C179.351 38.2967 179.284 38.4538 179.284 38.6176C179.284 38.7815 179.351 38.9386 179.471 39.0544C179.59 39.1702 179.752 39.2353 179.921 39.2353C180.428 39.2353 180.914 39.4305 181.273 39.778C181.631 40.1255 181.833 40.5968 181.833 41.0882C181.832 41.4126 181.743 41.7311 181.575 42.0119C181.408 42.2926 181.167 42.5257 180.877 42.6879C180.783 42.7408 180.704 42.8162 180.648 42.907C180.592 42.9979 180.561 43.1011 180.558 43.2068C180.556 43.3116 180.581 43.4154 180.631 43.5083C180.681 43.6013 180.755 43.6803 180.845 43.7379L181.094 43.8985L181.177 43.9418C181.945 44.2949 182.593 44.8534 183.044 45.5515C183.496 46.2497 183.732 47.0584 183.725 47.8824C183.725 48.0462 183.793 48.2033 183.912 48.3191C184.032 48.4349 184.194 48.5 184.363 48.5C184.532 48.5 184.694 48.4349 184.813 48.3191C184.933 48.2033 185 48.0462 185 47.8824C185.005 46.9345 184.76 46.0012 184.288 45.1709C183.817 44.3407 183.134 43.6412 182.304 43.1388Z" fill="#19161D"/>
</g>
</g>
<path d="M189.527 42.8008H190.043C190.296 42.8008 190.504 42.7591 190.668 42.6758C190.835 42.5898 190.958 42.474 191.039 42.3281C191.122 42.1797 191.164 42.013 191.164 41.8281C191.164 41.6094 191.128 41.4258 191.055 41.2773C190.982 41.1289 190.872 41.0169 190.727 40.9414C190.581 40.8659 190.396 40.8281 190.172 40.8281C189.969 40.8281 189.789 40.8685 189.633 40.9492C189.479 41.0273 189.358 41.1393 189.27 41.2852C189.184 41.431 189.141 41.6029 189.141 41.8008H188.418C188.418 41.5117 188.491 41.2487 188.637 41.0117C188.783 40.7747 188.987 40.5859 189.25 40.4453C189.516 40.3047 189.823 40.2344 190.172 40.2344C190.516 40.2344 190.816 40.2956 191.074 40.418C191.332 40.5378 191.533 40.7174 191.676 40.957C191.819 41.194 191.891 41.4896 191.891 41.8438C191.891 41.987 191.857 42.1406 191.789 42.3047C191.724 42.4661 191.621 42.6172 191.48 42.7578C191.342 42.8984 191.163 43.0143 190.941 43.1055C190.72 43.194 190.454 43.2383 190.145 43.2383H189.527V42.8008ZM189.527 43.3945V42.9609H190.145C190.507 42.9609 190.806 43.0039 191.043 43.0898C191.28 43.1758 191.466 43.2904 191.602 43.4336C191.74 43.5768 191.836 43.7344 191.891 43.9062C191.948 44.0755 191.977 44.2448 191.977 44.4141C191.977 44.6797 191.931 44.9154 191.84 45.1211C191.751 45.3268 191.625 45.5013 191.461 45.6445C191.299 45.7878 191.109 45.8958 190.891 45.9688C190.672 46.0417 190.434 46.0781 190.176 46.0781C189.928 46.0781 189.695 46.043 189.477 45.9727C189.26 45.9023 189.069 45.8008 188.902 45.668C188.736 45.5326 188.605 45.3672 188.512 45.1719C188.418 44.974 188.371 44.7487 188.371 44.4961H189.094C189.094 44.694 189.137 44.8672 189.223 45.0156C189.311 45.1641 189.436 45.2799 189.598 45.3633C189.762 45.444 189.954 45.4844 190.176 45.4844C190.397 45.4844 190.587 45.4466 190.746 45.3711C190.908 45.293 191.031 45.1758 191.117 45.0195C191.206 44.8633 191.25 44.6667 191.25 44.4297C191.25 44.1927 191.201 43.9987 191.102 43.8477C191.003 43.694 190.862 43.5807 190.68 43.5078C190.5 43.4323 190.288 43.3945 190.043 43.3945H189.527ZM195.746 40.3047H195.809V40.918H195.746C195.363 40.918 195.043 40.9805 194.785 41.1055C194.527 41.2279 194.323 41.3932 194.172 41.6016C194.021 41.8073 193.911 42.0391 193.844 42.2969C193.779 42.5547 193.746 42.8164 193.746 43.082V43.918C193.746 44.1706 193.776 44.3945 193.836 44.5898C193.896 44.7826 193.978 44.9453 194.082 45.0781C194.186 45.2109 194.303 45.3112 194.434 45.3789C194.566 45.4466 194.704 45.4805 194.848 45.4805C195.014 45.4805 195.163 45.4492 195.293 45.3867C195.423 45.3216 195.533 45.2318 195.621 45.1172C195.712 45 195.781 44.862 195.828 44.7031C195.875 44.5443 195.898 44.3698 195.898 44.1797C195.898 44.0104 195.878 43.8477 195.836 43.6914C195.794 43.5326 195.73 43.3919 195.645 43.2695C195.559 43.1445 195.451 43.0469 195.32 42.9766C195.193 42.9036 195.04 42.8672 194.863 42.8672C194.663 42.8672 194.475 42.9167 194.301 43.0156C194.129 43.112 193.987 43.2396 193.875 43.3984C193.766 43.5547 193.703 43.7253 193.688 43.9102L193.305 43.9062C193.341 43.6146 193.409 43.3659 193.508 43.1602C193.609 42.9518 193.734 42.7826 193.883 42.6523C194.034 42.5195 194.202 42.4232 194.387 42.3633C194.574 42.3008 194.772 42.2695 194.98 42.2695C195.264 42.2695 195.509 42.3229 195.715 42.4297C195.921 42.5365 196.09 42.6797 196.223 42.8594C196.355 43.0365 196.453 43.237 196.516 43.4609C196.581 43.6823 196.613 43.9102 196.613 44.1445C196.613 44.4128 196.576 44.6641 196.5 44.8984C196.424 45.1328 196.311 45.3385 196.16 45.5156C196.012 45.6927 195.828 45.8307 195.609 45.9297C195.391 46.0286 195.137 46.0781 194.848 46.0781C194.54 46.0781 194.272 46.0156 194.043 45.8906C193.814 45.763 193.624 45.5938 193.473 45.3828C193.322 45.1719 193.208 44.9375 193.133 44.6797C193.057 44.4219 193.02 44.1602 193.02 43.8945V43.5547C193.02 43.1536 193.06 42.7604 193.141 42.375C193.221 41.9896 193.361 41.6406 193.559 41.3281C193.759 41.0156 194.036 40.7669 194.391 40.582C194.745 40.3971 195.197 40.3047 195.746 40.3047ZM197.562 45.6172C197.562 45.4948 197.6 45.3919 197.676 45.3086C197.754 45.2227 197.866 45.1797 198.012 45.1797C198.158 45.1797 198.268 45.2227 198.344 45.3086C198.422 45.3919 198.461 45.4948 198.461 45.6172C198.461 45.737 198.422 45.8385 198.344 45.9219C198.268 46.0052 198.158 46.0469 198.012 46.0469C197.866 46.0469 197.754 46.0052 197.676 45.9219C197.6 45.8385 197.562 45.737 197.562 45.6172ZM202.355 40.3047H202.418V40.918H202.355C201.973 40.918 201.652 40.9805 201.395 41.1055C201.137 41.2279 200.932 41.3932 200.781 41.6016C200.63 41.8073 200.521 42.0391 200.453 42.2969C200.388 42.5547 200.355 42.8164 200.355 43.082V43.918C200.355 44.1706 200.385 44.3945 200.445 44.5898C200.505 44.7826 200.587 44.9453 200.691 45.0781C200.796 45.2109 200.913 45.3112 201.043 45.3789C201.176 45.4466 201.314 45.4805 201.457 45.4805C201.624 45.4805 201.772 45.4492 201.902 45.3867C202.033 45.3216 202.142 45.2318 202.23 45.1172C202.322 45 202.391 44.862 202.438 44.7031C202.484 44.5443 202.508 44.3698 202.508 44.1797C202.508 44.0104 202.487 43.8477 202.445 43.6914C202.404 43.5326 202.34 43.3919 202.254 43.2695C202.168 43.1445 202.06 43.0469 201.93 42.9766C201.802 42.9036 201.65 42.8672 201.473 42.8672C201.272 42.8672 201.085 42.9167 200.91 43.0156C200.738 43.112 200.596 43.2396 200.484 43.3984C200.375 43.5547 200.312 43.7253 200.297 43.9102L199.914 43.9062C199.951 43.6146 200.018 43.3659 200.117 43.1602C200.219 42.9518 200.344 42.7826 200.492 42.6523C200.643 42.5195 200.811 42.4232 200.996 42.3633C201.184 42.3008 201.382 42.2695 201.59 42.2695C201.874 42.2695 202.118 42.3229 202.324 42.4297C202.53 42.5365 202.699 42.6797 202.832 42.8594C202.965 43.0365 203.062 43.237 203.125 43.4609C203.19 43.6823 203.223 43.9102 203.223 44.1445C203.223 44.4128 203.185 44.6641 203.109 44.8984C203.034 45.1328 202.921 45.3385 202.77 45.5156C202.621 45.6927 202.438 45.8307 202.219 45.9297C202 46.0286 201.746 46.0781 201.457 46.0781C201.15 46.0781 200.882 46.0156 200.652 45.8906C200.423 45.763 200.233 45.5938 200.082 45.3828C199.931 45.1719 199.818 44.9375 199.742 44.6797C199.667 44.4219 199.629 44.1602 199.629 43.8945V43.5547C199.629 43.1536 199.669 42.7604 199.75 42.375C199.831 41.9896 199.97 41.6406 200.168 41.3281C200.368 41.0156 200.646 40.7669 201 40.582C201.354 40.3971 201.806 40.3047 202.355 40.3047ZM204.887 40V46H204.16V40H204.887ZM207.469 41.7734L205.625 43.7461L204.594 44.8164L204.535 44.0469L205.273 43.1641L206.586 41.7734H207.469ZM206.809 46L205.301 43.9844L205.676 43.3398L207.66 46H206.809Z" fill="#19161D"/>
<path d="M181.762 52.2812V58H181.039V53.1836L179.582 53.7148V53.0625L181.648 52.2812H181.762ZM187.73 56.0859V56.6797H183.621V56.2539L186.168 52.3125H186.758L186.125 53.4531L184.441 56.0859H187.73ZM186.938 52.3125V58H186.215V52.3125H186.938ZM192.945 56.3398V52.3125H193.695V56.3398C193.695 56.7148 193.618 57.0312 193.465 57.2891C193.311 57.5469 193.099 57.7435 192.828 57.8789C192.56 58.0117 192.251 58.0781 191.902 58.0781C191.553 58.0781 191.243 58.0182 190.973 57.8984C190.702 57.7786 190.49 57.5964 190.336 57.3516C190.182 57.1068 190.105 56.7982 190.105 56.4258H190.859C190.859 56.6654 190.904 56.862 190.992 57.0156C191.081 57.1693 191.203 57.2826 191.359 57.3555C191.518 57.4284 191.699 57.4648 191.902 57.4648C192.1 57.4648 192.277 57.4232 192.434 57.3398C192.592 57.2539 192.717 57.1276 192.809 56.9609C192.9 56.7917 192.945 56.5846 192.945 56.3398ZM197.355 57.2773V55.1016C197.355 54.9349 197.322 54.7904 197.254 54.668C197.189 54.543 197.09 54.4466 196.957 54.3789C196.824 54.3112 196.66 54.2773 196.465 54.2773C196.283 54.2773 196.122 54.3086 195.984 54.3711C195.849 54.4336 195.742 54.5156 195.664 54.6172C195.589 54.7188 195.551 54.8281 195.551 54.9453H194.828C194.828 54.7943 194.867 54.6445 194.945 54.4961C195.023 54.3477 195.135 54.2135 195.281 54.0938C195.43 53.9714 195.607 53.875 195.812 53.8047C196.021 53.7318 196.253 53.6953 196.508 53.6953C196.815 53.6953 197.086 53.7474 197.32 53.8516C197.557 53.9557 197.742 54.1133 197.875 54.3242C198.01 54.5326 198.078 54.7943 198.078 55.1094V57.0781C198.078 57.2188 198.09 57.3685 198.113 57.5273C198.139 57.6862 198.177 57.8229 198.227 57.9375V58H197.473C197.436 57.9167 197.408 57.806 197.387 57.668C197.366 57.5273 197.355 57.3971 197.355 57.2773ZM197.48 55.4375L197.488 55.9453H196.758C196.552 55.9453 196.368 55.9622 196.207 55.9961C196.046 56.0273 195.91 56.0755 195.801 56.1406C195.691 56.2057 195.608 56.2878 195.551 56.3867C195.493 56.4831 195.465 56.5964 195.465 56.7266C195.465 56.8594 195.495 56.9805 195.555 57.0898C195.615 57.1992 195.704 57.2865 195.824 57.3516C195.947 57.4141 196.096 57.4453 196.273 57.4453C196.495 57.4453 196.69 57.3984 196.859 57.3047C197.029 57.2109 197.163 57.0964 197.262 56.9609C197.363 56.8255 197.418 56.694 197.426 56.5664L197.734 56.9141C197.716 57.0234 197.667 57.1445 197.586 57.2773C197.505 57.4102 197.397 57.5378 197.262 57.6602C197.129 57.7799 196.97 57.8802 196.785 57.9609C196.603 58.0391 196.397 58.0781 196.168 58.0781C195.882 58.0781 195.63 58.0221 195.414 57.9102C195.201 57.7982 195.034 57.6484 194.914 57.4609C194.797 57.2708 194.738 57.0586 194.738 56.8242C194.738 56.5977 194.783 56.3984 194.871 56.2266C194.96 56.0521 195.087 55.9076 195.254 55.793C195.421 55.6758 195.621 55.5872 195.855 55.5273C196.09 55.4674 196.352 55.4375 196.641 55.4375H197.48ZM199.938 54.6758V58H199.215V53.7734H199.898L199.938 54.6758ZM199.766 55.7266L199.465 55.7148C199.467 55.4258 199.51 55.1589 199.594 54.9141C199.677 54.6667 199.794 54.4518 199.945 54.2695C200.096 54.0872 200.276 53.9466 200.484 53.8477C200.695 53.7461 200.928 53.6953 201.184 53.6953C201.392 53.6953 201.579 53.724 201.746 53.7812C201.913 53.8359 202.055 53.9245 202.172 54.0469C202.292 54.1693 202.383 54.3281 202.445 54.5234C202.508 54.7161 202.539 54.9518 202.539 55.2305V58H201.812V55.2227C201.812 55.0013 201.78 54.8242 201.715 54.6914C201.65 54.556 201.555 54.4583 201.43 54.3984C201.305 54.3359 201.151 54.3047 200.969 54.3047C200.789 54.3047 200.625 54.3424 200.477 54.418C200.331 54.4935 200.204 54.5977 200.098 54.7305C199.993 54.8633 199.911 55.0156 199.852 55.1875C199.794 55.3568 199.766 55.5365 199.766 55.7266Z" fill="#19161D"/>
<defs>
<filter id="filter0_i_0_1" x="0" y="-3.05176e-05" width="382" height="183" filterUnits="userSpaceOnUse" color-interpolation-filters="sRGB">
<feFlood flood-opacity="0" result="BackgroundImageFix"/>
<feBlend mode="normal" in="SourceGraphic" in2="BackgroundImageFix" result="shape"/>
<feColorMatrix in="SourceAlpha" type="matrix" values="0 0 0 0 0 0 0 0 0 0 0 0 0 0 0 0 0 0 127 0" result="hardAlpha"/>
<feOffset dx="2" dy="2"/>
<feGaussianBlur stdDeviation="4"/>
<feComposite in2="hardAlpha" operator="arithmetic" k2="-1" k3="1"/>
<feColorMatrix type="matrix" values="0 0 0 0 0 0 0 0 0 0 0 0 0 0 0 0 0 0 1 0"/>
<feBlend mode="normal" in2="shape" result="effect1_innerShadow_0_1"/>
</filter>
<filter id="filter1_d_0_1" x="161" y="31" width="64" height="46" filterUnits="userSpaceOnUse" color-interpolation-filters="sRGB">
<feFlood flood-opacity="0" result="BackgroundImageFix"/>
<feColorMatrix in="SourceAlpha" type="matrix" values="0 0 0 0 0 0 0 0 0 0 0 0 0 0 0 0 0 0 127 0" result="hardAlpha"/>
<feOffset dx="2" dy="2"/>
<feGaussianBlur stdDeviation="2.5"/>
<feComposite in2="hardAlpha" operator="out"/>
<feColorMatrix type="matrix" values="0 0 0 0 0 0 0 0 0 0 0 0 0 0 0 0 0 0 1 0"/>
<feBlend mode="normal" in2="BackgroundImageFix" result="effect1_dropShadow_0_1"/>
<feBlend mode="normal" in="SourceGraphic" in2="effect1_dropShadow_0_1" result="shape"/>
</filter>
</defs>
</svg>
