<svg width="35" height="35" viewBox="0 0 35 35" fill="none" xmlns="http://www.w3.org/2000/svg">
<path d="M26.25 8.75H8.75C8.28587 8.75 7.84075 8.93437 7.51256 9.26256C7.18437 9.59075 7 10.0359 7 10.5C7 10.9641 7.18437 11.4092 7.51256 11.7374C7.84075 12.0656 8.28587 12.25 8.75 12.25H26.25C26.7141 12.25 27.1593 12.0656 27.4874 11.7374C27.8156 11.4092 28 10.9641 28 10.5C28 10.0359 27.8156 9.59075 27.4874 9.26256C27.1593 8.93437 26.7141 8.75 26.25 8.75ZM26.25 15.75H8.75C8.28587 15.75 7.84075 15.9344 7.51256 16.2626C7.18437 16.5908 7 17.0359 7 17.5C7 17.9641 7.18437 18.4092 7.51256 18.7374C7.84075 19.0656 8.28587 19.25 8.75 19.25H26.25C26.7141 19.25 27.1593 19.0656 27.4874 18.7374C27.8156 18.4092 28 17.9641 28 17.5C28 17.0359 27.8156 16.5908 27.4874 16.2626C27.1593 15.9344 26.7141 15.75 26.25 15.75ZM29.75 0H5.25C3.85761 0 2.52226 0.553124 1.53769 1.53769C0.553124 2.52226 0 3.85761 0 5.25V22.75C0 24.1424 0.553124 25.4777 1.53769 26.4623C2.52226 27.4469 3.85761 28 5.25 28H25.5325L32.0075 34.4925C32.171 34.6547 32.3649 34.783 32.5782 34.8701C32.7914 34.9572 33.0197 35.0013 33.25 35C33.4796 35.0059 33.7073 34.958 33.915 34.86C34.2346 34.7287 34.5082 34.5058 34.7012 34.2193C34.8943 33.9327 34.9983 33.5955 35 33.25V5.25C35 3.85761 34.4469 2.52226 33.4623 1.53769C32.4777 0.553124 31.1424 0 29.75 0ZM31.5 29.0325L27.4925 25.0075C27.329 24.8453 27.1351 24.717 26.9218 24.6299C26.7086 24.5428 26.4803 24.4987 26.25 24.5H5.25C4.78587 24.5 4.34075 24.3156 4.01256 23.9874C3.68438 23.6592 3.5 23.2141 3.5 22.75V5.25C3.5 4.78587 3.68438 4.34075 4.01256 4.01256C4.34075 3.68438 4.78587 3.5 5.25 3.5H29.75C30.2141 3.5 30.6593 3.68438 30.9874 4.01256C31.3156 4.34075 31.5 4.78587 31.5 5.25V29.0325Z" fill="#FFC700"/>
</svg>
