<svg width="35" height="32" viewBox="0 0 35 32" fill="none" xmlns="http://www.w3.org/2000/svg">
<path d="M31.8091 3.28921C29.9535 1.42885 27.4939 0.293395 24.8744 0.0879453C22.2549 -0.117505 19.6483 0.620599 17.5254 2.16893C15.2983 0.512371 12.5262 -0.238791 9.76733 0.0667077C7.00851 0.372206 4.4679 1.71167 2.65712 3.81537C0.846342 5.91907 -0.100096 8.63073 0.00839409 11.4043C0.116885 14.1779 1.27224 16.8073 3.24181 18.7631L14.1121 29.6509C15.0223 30.5468 16.2483 31.0488 17.5254 31.0488C18.8026 31.0488 20.0286 30.5468 20.9388 29.6509L31.8091 18.7631C33.8529 16.7068 35 13.9254 35 11.0262C35 8.12696 33.8529 5.34552 31.8091 3.28921ZM29.3409 16.3475L18.4707 27.2178C18.347 27.3427 18.1998 27.4418 18.0375 27.5095C17.8753 27.5772 17.7012 27.612 17.5254 27.612C17.3497 27.612 17.1756 27.5772 17.0134 27.5095C16.8511 27.4418 16.7039 27.3427 16.5802 27.2178L5.70994 16.295C4.33717 14.8918 3.56846 13.0067 3.56846 11.0437C3.56846 9.08062 4.33717 7.1956 5.70994 5.79235C7.10882 4.41123 8.99548 3.6368 10.9613 3.6368C12.9271 3.6368 14.8137 4.41123 16.2126 5.79235C16.3753 5.95641 16.5689 6.08664 16.7822 6.17551C16.9956 6.26437 17.2243 6.31013 17.4554 6.31013C17.6865 6.31013 17.9153 6.26437 18.1286 6.17551C18.3419 6.08664 18.5355 5.95641 18.6982 5.79235C20.0971 4.41123 21.9838 3.6368 23.9496 3.6368C25.9154 3.6368 27.802 4.41123 29.2009 5.79235C30.5926 7.17721 31.3865 9.05201 31.4127 11.0151C31.4388 12.9782 30.6952 14.8735 29.3409 16.295V16.3475Z" fill="#FF537C"/>
</svg>
