<svg width="35" height="28" viewBox="0 0 35 28" fill="none" xmlns="http://www.w3.org/2000/svg">
<path d="M18.0017 13.8916C18.8517 13.1558 19.5335 12.2458 20.0008 11.2232C20.4681 10.2007 20.71 9.08961 20.7099 7.96536C20.7099 5.85282 19.8707 3.8268 18.3769 2.333C16.8831 0.839206 14.8571 2.85018e-07 12.7446 2.85018e-07C10.632 2.85018e-07 8.60601 0.839206 7.11222 2.333C5.61842 3.8268 4.77922 5.85282 4.77922 7.96536C4.7792 9.08961 5.02105 10.2007 5.48833 11.2232C5.95562 12.2458 6.63741 13.1558 7.48744 13.8916C5.25736 14.9014 3.36531 16.5322 2.03751 18.5888C0.709706 20.6455 0.00234477 23.0411 0 25.4892C0 25.9117 0.167841 26.3169 0.4666 26.6156C0.765359 26.9144 1.17056 27.0822 1.59307 27.0822C2.01558 27.0822 2.42079 26.9144 2.71954 26.6156C3.0183 26.3169 3.18614 25.9117 3.18614 25.4892C3.18614 22.9541 4.19319 20.5229 5.98575 18.7303C7.7783 16.9378 10.2095 15.9307 12.7446 15.9307C15.2796 15.9307 17.7109 16.9378 19.5034 18.7303C21.296 20.5229 22.303 22.9541 22.303 25.4892C22.303 25.9117 22.4709 26.3169 22.7696 26.6156C23.0684 26.9144 23.4736 27.0822 23.8961 27.0822C24.3186 27.0822 24.7238 26.9144 25.0226 26.6156C25.3213 26.3169 25.4892 25.9117 25.4892 25.4892C25.4868 23.0411 24.7795 20.6455 23.4516 18.5888C22.1238 16.5322 20.2318 14.9014 18.0017 13.8916ZM12.7446 12.7446C11.7993 12.7446 10.8753 12.4643 10.0894 11.9391C9.30345 11.414 8.69089 10.6676 8.32916 9.79429C7.96743 8.921 7.87279 7.96006 8.05719 7.03298C8.2416 6.10591 8.69678 5.25433 9.36516 4.58595C10.0335 3.91756 10.8851 3.46238 11.8122 3.27798C12.7393 3.09357 13.7002 3.18821 14.5735 3.54994C15.4468 3.91167 16.1932 4.52423 16.7184 5.31017C17.2435 6.09611 17.5238 7.02012 17.5238 7.96536C17.5238 9.23289 17.0203 10.4485 16.124 11.3448C15.2277 12.2411 14.0121 12.7446 12.7446 12.7446ZM28.2611 13.2544C29.2806 12.1063 29.9466 10.688 30.1788 9.17026C30.4111 7.65252 30.1998 6.09999 29.5702 4.69956C28.9407 3.29913 27.9199 2.11049 26.6305 1.27672C25.3412 0.442954 23.8384 -0.000410376 22.303 2.85018e-07C21.8805 2.85018e-07 21.4753 0.167841 21.1765 0.4666C20.8778 0.765359 20.7099 1.17056 20.7099 1.59307C20.7099 2.01558 20.8778 2.42079 21.1765 2.71954C21.4753 3.0183 21.8805 3.18614 22.303 3.18614C23.5705 3.18614 24.7862 3.68967 25.6824 4.58595C26.5787 5.48222 27.0822 6.69783 27.0822 7.96536C27.08 8.80211 26.8581 9.6236 26.4387 10.3477C26.0194 11.0718 25.4173 11.673 24.6926 12.0914C24.4564 12.2277 24.2592 12.4222 24.1197 12.6565C23.9802 12.8908 23.9032 13.157 23.8961 13.4296C23.8894 13.7 23.9517 13.9677 24.0772 14.2074C24.2026 14.4471 24.387 14.6509 24.613 14.7996L25.2343 15.2138L25.4414 15.3254C27.3616 16.2361 28.9817 17.6767 30.1106 19.4774C31.2396 21.2781 31.8305 23.3639 31.8137 25.4892C31.8137 25.9117 31.9815 26.3169 32.2803 26.6156C32.579 26.9144 32.9842 27.0822 33.4067 27.0822C33.8292 27.0822 34.2344 26.9144 34.5332 26.6156C34.832 26.3169 34.9998 25.9117 34.9998 25.4892C35.0128 23.0445 34.4005 20.6371 33.2211 18.4957C32.0416 16.3543 30.3342 14.55 28.2611 13.2544Z" fill="#3DB9FF"/>
</svg>
